<svg xmlns="http://www.w3.org/2000/svg" viewBox="0 0 1024 1024" width="1024" height="1024">
  <g transform="translate(212.699 174.080) scale(4.827429)">
    <path d="M62 0 C52.1 16.8, 0 25.2, 0 72.8 C0 112, 27.3 140, 62 140 C96.7 140, 124 112, 124 72.8 C124 25.2, 71.9 16.8, 62 0Z" fill="#FF9F0A"/>
<path d="M62 28 C57 42, 24.8 46.2, 24.8 78.4 C24.8 106.4, 43.4 126, 62 128.8 C80.6 126, 99.2 106.4, 99.2 78.4 C99.2 46.2, 67 42, 62 28Z" fill="#FFD60A"/>
<ellipse cx="62" cy="91" rx="12.4" ry="14" fill="#FFF3CC"/>
  </g>
</svg>
