<svg xmlns="http://www.w3.org/2000/svg" viewBox="-60.00 -1029.38 3881.75 1439.38">
  <g fill="#FFFFFF" transform="scale(1 -1)">
    <g transform="translate(0 0)">
      <path d="M446 479V558H617V1Q617 -76 586.5 -138.5Q556 -201 493.5 -238.0Q431 -275 338 -275Q214 -275 137.0 -216.5Q60 -158 49 -58H218Q226 -90 256.0 -108.5Q286 -127 330 -127Q383 -127 414.5 -96.5Q446 -66 446 1V80Q421 41 377.0 16.5Q333 -8 274 -8Q205 -8 149.0 27.5Q93 63 60.5 128.5Q28 194 28 280Q28 366 60.5 431.0Q93 496 149.0 531.0Q205 566 274 566Q333 566 377.5 542.0Q422 518 446 479ZM324 417Q273 417 237.5 380.5Q202 344 202 280Q202 216 237.5 178.5Q273 141 324 141Q375 141 410.5 178.0Q446 215 446 279Q446 343 410.5 380.0Q375 417 324 417Z" transform="translate(0 0)"/>
    <path d="M408 564V383H361Q297 383 265.0 355.5Q233 328 233 259V0H62V558H233V465Q263 511 308.0 537.5Q353 564 408 564Z" transform="translate(679 0)"/>
    </g>
    <g transform="translate(2279.75 0)">
      <path d="M863 558 712 0H523L435 362L344 0H156L4 558H175L254 159L348 558H529L624 161L702 558Z" transform="translate(0 0)"/>
    <path d="M585 238H198Q202 186 231.5 158.5Q261 131 304 131Q368 131 393 185H575Q561 130 524.5 86.0Q488 42 433.0 17.0Q378 -8 310 -8Q228 -8 164.0 27.0Q100 62 64.0 127.0Q28 192 28 279Q28 366 63.5 431.0Q99 496 163.0 531.0Q227 566 310 566Q391 566 454.0 532.0Q517 498 552.5 435.0Q588 372 588 288Q588 264 585 238ZM413 333Q413 377 383.0 403.0Q353 429 308 429Q265 429 235.5 404.0Q206 379 199 333Z" transform="translate(866 0)"/>
    </g>
  </g>
  <g transform="translate(1147.000 -969.375) scale(8.812500)">
    <path d="M62 0 C52.1 16.8, 0 25.2, 0 72.8 C0 112, 27.3 140, 62 140 C96.7 140, 124 112, 124 72.8 C124 25.2, 71.9 16.8, 62 0Z" fill="#FF9F0A"/>
<path d="M62 28 C57 42, 24.8 46.2, 24.8 78.4 C24.8 106.4, 43.4 126, 62 128.8 C80.6 126, 99.2 106.4, 99.2 78.4 C99.2 46.2, 67 42, 62 28Z" fill="#FFD60A"/>
<ellipse cx="62" cy="91" rx="12.4" ry="14" fill="#FFF3CC"/>
  </g>
</svg>
